<svg xmlns="http://www.w3.org/2000/svg" viewBox="0 0 32 32">
  <defs>
    <linearGradient id="bg" x1="0" y1="0" x2="32" y2="32" gradientUnits="userSpaceOnUse">
      <stop stop-color="#061510"/>
      <stop offset="0.58" stop-color="#0B1F1A"/>
      <stop offset="1" stop-color="#164036"/>
    </linearGradient>
  </defs>
  <rect width="32" height="32" rx="7" fill="url(#bg)"/>
  <path d="M8.3 22.5V9.5h10.2v3H11.9v2.5h5.8v2.9h-5.8v4.6H8.3Z" fill="#FFFFFF"/>
  <path d="M19.1 22.5v-9h3.2v1.1c0.6-0.9 1.6-1.35 2.8-1.35 1 0 1.82 0.34 2.45 1.02 0.63 0.67 0.95 1.58 0.95 2.73v5.5h-3.25v-4.98c0-0.52-0.13-0.92-0.4-1.19-0.26-0.29-0.62-0.43-1.08-0.43-0.45 0-0.81 0.16-1.08 0.47-0.26 0.31-0.39 0.75-0.39 1.31v4.82H19.1Z" fill="#D4B56A"/>
</svg>
